<svg id="Layer_1" data-name="Layer 1" xmlns="http://www.w3.org/2000/svg" viewBox="0 0 512 512"><defs><style>.cls-1{fill:#1A1AFF;}</style></defs><title>web-browser-other</title><path class="cls-1" d="M506.31,512H5.69A5.69,5.69,0,0,1,0,506.31V142.22a5.69,5.69,0,0,1,5.69-5.69H506.31a5.69,5.69,0,0,1,5.69,5.69V506.31A5.69,5.69,0,0,1,506.31,512ZM11.38,500.62H500.62V147.91H11.38Z"/><path class="cls-1" d="M506.31,147.91H5.69A5.69,5.69,0,0,1,0,142.22V5.69A5.69,5.69,0,0,1,5.69,0H506.31A5.69,5.69,0,0,1,512,5.69V142.22A5.69,5.69,0,0,1,506.31,147.91ZM11.38,136.53H500.62V11.38H11.38Z"/><path class="cls-1" d="M74,102.4A28.44,28.44,0,1,1,102.4,74,28.47,28.47,0,0,1,74,102.4Zm0-45.51A17.07,17.07,0,1,0,91,74,17.09,17.09,0,0,0,74,56.89Z"/><path class="cls-1" d="M142.22,102.4A28.44,28.44,0,1,1,170.67,74,28.47,28.47,0,0,1,142.22,102.4Zm0-45.51A17.07,17.07,0,1,0,159.29,74,17.09,17.09,0,0,0,142.22,56.89Z"/><path class="cls-1" d="M210.49,102.4A28.44,28.44,0,1,1,238.93,74,28.47,28.47,0,0,1,210.49,102.4Zm0-45.51A17.07,17.07,0,1,0,227.56,74,17.09,17.09,0,0,0,210.49,56.89Z"/><path class="cls-1" d="M210.49,375.47a5.67,5.67,0,0,1-4-1.67L161,328.29a5.69,5.69,0,0,1,0-8l45.51-45.51a5.69,5.69,0,0,1,8,8L173,324.27l41.49,41.49a5.69,5.69,0,0,1-4,9.71Z"/><path class="cls-1" d="M301.51,375.47a5.69,5.69,0,0,1-4-9.71L339,324.27l-41.49-41.49a5.69,5.69,0,0,1,8-8L351,320.24a5.69,5.69,0,0,1,0,8L305.53,373.8A5.67,5.67,0,0,1,301.51,375.47Z"/></svg>